<?xml version="1.0" encoding="utf-8"?>
<svg version="1.1" id="panel" xmlns="http://www.w3.org/2000/svg" xmlns:xlink="http://www.w3.org/1999/xlink" x="0px" y="0px"
	 viewBox="0 0 50 50" xml:space="preserve">
	<g>
		<path style="fill: #AAAAAA;" d="M0,31.1c0.1-0.7,0.2-1.4,0.3-2.1C1.1,23.6,3.6,19,7.4,15c3.5-3.6,7.7-5.8,12.6-6.8c2.8-0.6,5.5-0.7,8.3-0.3
			c4.9,0.7,9.3,2.6,13.1,5.9c4,3.6,6.8,8.1,8,13.5c0.2,1.1,0.3,2.3,0.5,3.4c0,0.1,0.1,0.2,0.1,0.4c0,1.1,0,2.3,0,3.4
			c-0.1,0.7-0.1,1.4-0.3,2.1c-0.3,1.4-0.6,2.8-1,4.2c-0.2,0.8-1.1,1.2-1.8,1c-0.8-0.3-1.2-1-1-1.9c0.3-1.4,0.7-2.8,1-4.2
			c0.1-0.4,0.1-0.9,0.2-1.4c-0.2,0-0.4,0-0.5,0c-1.3,0-2.6,0-3.9,0c-1.1,0-1.8-0.9-1.5-1.9c0.2-0.7,0.8-1.1,1.5-1.1
			c1.3,0,2.6,0,3.9,0c0.2,0,0.3,0,0.5,0c0-2.1-0.8-5.6-2.2-8.2c-0.1,0.1-0.3,0.1-0.4,0.2c-1.1,0.6-2.2,1.3-3.4,1.9
			c-0.9,0.5-1.8,0.3-2.2-0.5c-0.4-0.7-0.1-1.6,0.7-2.1c1.2-0.7,2.5-1.4,3.8-2.2c-1.6-2.4-3.6-4.4-6-6c-0.4,0.6-0.7,1.2-1.1,1.8
			c-0.4,0.6-0.7,1.3-1.1,1.9c-0.5,0.9-1.4,1.2-2.1,0.7c-0.8-0.4-0.9-1.3-0.5-2.2c0.7-1.3,1.4-2.5,2.2-3.8c-2.6-1.3-5.3-2-8.2-2.2
			c0,0.2,0,0.4,0,0.6c0,1.3,0,2.6,0,4c0,0.9-0.6,1.6-1.5,1.6c-0.8,0-1.5-0.6-1.5-1.6c0-1.3,0-2.6,0-4c0-0.2,0-0.4,0-0.6
			c-2.9,0.2-5.6,0.9-8.2,2.2c0.7,1.3,1.5,2.6,2.1,3.8c0.2,0.4,0.3,0.8,0.3,1.2c-0.1,0.6-0.5,1-1.2,1.1c-0.7,0.1-1.2-0.2-1.5-0.7
			c-0.5-0.9-1-1.7-1.5-2.6c-0.2-0.4-0.5-0.8-0.8-1.3c-2.4,1.6-4.4,3.6-6,6c0.1,0.1,0.3,0.2,0.4,0.3c1.2,0.7,2.3,1.3,3.5,2
			c1,0.6,1.1,1.9,0.1,2.5c-0.6,0.4-1.1,0.3-1.7,0c-1.1-0.6-2.2-1.3-3.3-1.9c-0.2-0.1-0.3-0.2-0.5-0.3c-1.3,2.6-2,5.3-2.2,8.2
			c0.2,0,0.4,0,0.5,0c1.3,0,2.5,0,3.8,0c1,0,1.7,0.6,1.7,1.5c0,0.9-0.7,1.5-1.7,1.5c-1.4,0-2.9,0-4.4,0c0.1,0.9,0.2,1.7,0.4,2.6
			C3.6,38,4,39.2,4.3,40.3c0.2,0.8-0.1,1.5-0.7,1.8c-0.6,0.3-1.4,0.2-1.8-0.3c-0.2-0.2-0.3-0.5-0.4-0.8c-0.7-2-1.2-4.1-1.3-6.2
			c0-0.1-0.1-0.2-0.1-0.3C0,33.4,0,32.3,0,31.1z"/>
		<path style="fill: #AAAAAA;" d="M25,28.6c0.5,0.1,1.1,0.2,1.5,0.4c0.4,0.2,0.6,0.1,0.8-0.2c1.9-2.1,3.8-4.2,5.8-6.2c0.4-0.5,0.9-0.8,1.6-0.6
			c1.1,0.3,1.5,1.6,0.7,2.5c-1,1.1-2.1,2.2-3.1,3.4c-1.1,1.1-2.1,2.3-3.2,3.4c-0.2,0.2-0.3,0.4-0.2,0.7c0.4,1.9-0.4,3.7-2.2,4.7
			c-1.5,0.8-3.6,0.4-4.8-0.9c-1.3-1.5-1.5-3.5-0.5-5.2C22.2,29.4,23.6,28.7,25,28.6z M26.1,32.9c0-0.6-0.5-1.2-1.2-1.2
			c-0.6,0-1.2,0.6-1.2,1.2c0,0.6,0.6,1.1,1.2,1.2C25.6,34,26.1,33.5,26.1,32.9z"/>
	</g>
</svg>
